<svg version="1.1" id="Layer_1" xmlns="http://www.w3.org/2000/svg" xmlns:xlink="http://www.w3.org/1999/xlink" x="0px" y="0px"
	 width="100%" viewBox="0 0 1978 3175" enable-background="new 0 0 1978 3175" xml:space="preserve">

<path fill="#675C90" opacity="1.000000" stroke="none" 
	d="
M2.000000,2684.916016 
	C6.443040,2683.370117 5.453741,2679.828369 5.643242,2677.029053 
	C7.101549,2655.485596 7.711956,2633.850586 10.091816,2612.411377 
	C15.439741,2564.234131 21.317984,2516.108887 27.609308,2468.044922 
	C35.078789,2410.980469 46.031681,2354.499756 57.698494,2298.167236 
	C71.061386,2233.645508 86.960403,2169.770020 107.688683,2107.174805 
	C122.248199,2063.207764 139.311722,2020.196045 160.310898,1978.923584 
	C184.474197,1931.431885 210.432617,1884.889282 242.639954,1842.236938 
	C250.399658,1831.960693 259.644379,1822.718140 268.876373,1813.685303 
	C272.504852,1810.135132 277.715088,1807.619141 282.656372,1806.125488 
	C290.746063,1803.680420 296.330719,1806.780273 299.344727,1814.564575 
	C300.767670,1818.239624 301.714355,1822.250854 302.028564,1826.177734 
	C303.593323,1845.734253 302.478058,1865.243896 300.680847,1884.747314 
	C298.851959,1904.594360 297.333588,1924.470215 295.690002,1944.334351 
	C293.938019,1965.508057 292.039520,1986.671387 290.510193,2007.861206 
	C289.505402,2021.783325 288.513763,2035.741333 288.432617,2049.688477 
	C288.170990,2094.647949 287.244934,2139.643799 288.649719,2184.560547 
	C289.967133,2226.684570 294.218781,2268.670654 299.355408,2310.574951 
	C311.029541,2405.811279 331.320740,2499.332031 354.591888,2592.229492 
	C373.629761,2668.227783 399.119537,2742.120117 432.552521,2813.088623 
	C460.562378,2872.544922 493.725098,2929.041748 530.895874,2983.257080 
	C543.485840,3001.620117 555.196350,3020.658203 566.218323,3040.008789 
	C585.441345,3073.756836 572.643250,3105.034668 547.994568,3126.674316 
	C534.834656,3138.228027 519.423035,3146.076172 503.161621,3152.345215 
	C470.596161,3164.899414 436.721252,3171.341309 400.335876,3174.082031 
	C394.986664,3175.123047 389.625702,3171.522217 388.000000,3178.000000 
	C357.958221,3178.000000 327.916412,3178.000000 296.877319,3177.218750 
	C291.678680,3172.383545 286.493286,3174.537598 280.821869,3174.142822 
	C272.662018,3173.403564 265.351562,3172.957520 258.112823,3171.980225 
	C213.539658,3165.963135 170.654404,3154.447998 131.507614,3131.561279 
	C99.464005,3112.827393 71.723839,3089.292236 52.403782,3057.038330 
	C38.577190,3033.955566 30.513462,3008.573242 24.292274,2982.608154 
	C15.285810,2945.017334 10.281529,2906.812012 7.631378,2868.275146 
	C7.084565,2860.323730 6.321634,2852.384766 5.510677,2844.455078 
	C5.323968,2842.629883 5.055137,2840.102295 2.000000,2842.000000 
	C2.000000,2797.958252 2.000000,2753.916260 2.289771,2708.707031 
	C2.674864,2707.312988 2.913298,2706.996826 2.838143,2706.876953 
	C2.628094,2706.541260 2.288488,2706.286621 2.000000,2706.000000 
	C2.000000,2699.277344 2.000000,2692.554932 2.000000,2684.916016 
M4.275230,2831.224365 
	C4.275230,2831.224365 4.729435,2831.461670 4.729435,2831.461670 
	C4.729435,2831.461670 4.647067,2830.956787 4.275230,2831.224365 
z"/>
<path fill="#675C90" opacity="1.000000" stroke="none" 
	d="
M1683.776245,3147.667236 
	C1677.900513,3147.837891 1672.024902,3148.008545 1664.309692,3148.177490 
	C1648.223267,3148.184082 1633.976318,3148.192139 1619.729370,3148.200439 
	C1613.808716,3148.109375 1607.888062,3148.018555 1600.426270,3147.354492 
	C1595.121704,3146.640381 1591.358154,3146.499756 1587.594727,3146.359375 
	C1546.857788,3143.628418 1507.259155,3135.815186 1469.674805,3119.402832 
	C1453.007568,3112.124756 1437.928101,3102.239258 1426.211792,3088.185303 
	C1405.678467,3063.554932 1402.137939,3038.855225 1419.657104,3007.896729 
	C1431.442871,2987.069824 1444.761230,2967.053223 1458.251465,2947.258301 
	C1496.599731,2890.989014 1530.061523,2832.043457 1558.187500,2770.004150 
	C1593.649536,2691.783447 1619.469116,2610.393555 1638.447632,2526.801025 
	C1650.005127,2475.894287 1661.071289,2424.848145 1670.862549,2373.578613 
	C1677.337646,2339.673096 1681.780029,2305.336670 1685.979370,2271.052002 
	C1689.531128,2242.056641 1691.927246,2212.892822 1693.941772,2183.741699 
	C1697.341797,2134.540283 1696.918823,2085.252441 1695.688232,2035.979004 
	C1695.240112,2018.034424 1694.882568,2000.061279 1693.550049,1982.170654 
	C1690.886230,1946.406128 1687.158813,1910.718506 1684.680420,1874.942993 
	C1682.979980,1850.398071 1682.582397,1825.760376 1681.776978,1801.158569 
	C1681.669800,1797.884399 1682.279419,1794.497559 1683.090820,1791.298096 
	C1686.593140,1777.487183 1695.764038,1772.954712 1707.664673,1780.521729 
	C1715.950439,1785.790039 1723.628906,1792.602905 1730.115479,1800.007812 
	C1755.702393,1829.216309 1774.882812,1862.806519 1794.416138,1896.133301 
	C1842.758911,1978.612915 1875.927734,2067.166260 1900.302368,2159.296387 
	C1921.247925,2238.465332 1937.598511,2318.595215 1950.281860,2399.458008 
	C1956.974487,2442.127930 1962.858521,2484.940674 1968.161377,2527.806152 
	C1971.747925,2556.798096 1973.658691,2585.996338 1976.423340,2615.092529 
	C1976.596558,2616.913574 1977.680542,2618.647705 1979.170410,2620.211182 
	C1980.000000,2630.044189 1980.000000,2640.088379 1979.453125,2650.872070 
	C1979.270874,2652.407471 1979.635498,2653.203857 1980.000000,2654.000000 
	C1980.000000,2660.061279 1980.000000,2666.122314 1979.637451,2673.159668 
	C1979.516724,2674.757080 1979.758301,2675.378418 1980.000000,2676.000000 
	C1980.000000,2728.708496 1980.000000,2781.416992 1980.000000,2835.062744 
	C1976.079468,2835.113770 1976.637085,2838.206055 1976.416016,2840.263916 
	C1974.287842,2860.071533 1972.751099,2879.957520 1970.064331,2899.687256 
	C1965.388184,2934.025391 1958.139893,2967.820801 1945.677979,3000.296875 
	C1929.387329,3042.749756 1899.592407,3073.733154 1861.897705,3097.708984 
	C1823.646118,3122.038818 1781.372314,3135.415771 1736.808716,3142.024414 
	C1724.656982,3143.826416 1712.384521,3144.814697 1698.430908,3146.175293 
	C1692.388306,3146.671875 1688.082275,3147.169434 1683.776245,3147.667236 
z"/>
<path fill="#675C90" opacity="1.000000" stroke="none" 
	d="
M1549.062744,1.999989 
	C1550.760498,3.110096 1551.308838,4.926556 1552.312134,5.227887 
	C1584.608154,14.927932 1607.127930,37.083786 1626.246460,63.403240 
	C1662.257568,112.978271 1689.579468,167.266968 1712.545044,223.869720 
	C1741.174561,294.432129 1761.164307,367.450928 1773.374268,442.542755 
	C1777.419922,467.422791 1779.608398,492.615814 1782.291382,517.703613 
	C1785.769287,550.225891 1784.791016,582.860596 1783.507568,615.439392 
	C1782.999756,628.331726 1780.524170,641.143188 1779.061646,654.004761 
	C1778.810791,656.211792 1779.150635,658.486023 1778.907959,661.376465 
	C1766.854492,658.643188 1755.256714,654.552490 1743.322510,652.097656 
	C1733.051758,649.985046 1722.397095,649.738342 1711.395142,648.157715 
	C1708.976562,643.769836 1707.043579,639.905762 1705.179321,636.008789 
	C1697.857178,620.703247 1690.992188,605.161072 1683.174927,590.113403 
	C1644.078979,514.858093 1592.076172,449.600647 1529.797119,392.236725 
	C1473.832275,340.688873 1411.903809,297.701782 1344.065063,263.520386 
	C1314.410522,248.578552 1283.400757,236.326340 1253.006470,222.852753 
	C1253.829102,221.867950 1255.197388,220.981003 1255.394043,219.883972 
	C1259.849121,195.038223 1271.242798,173.241043 1285.949585,153.267303 
	C1332.846802,89.574738 1392.496338,42.060886 1466.505249,13.283534 
	C1474.828125,10.047256 1483.703491,8.241113 1492.290771,5.665453 
	C1493.820557,5.206581 1495.193237,4.223696 1496.319214,2.741406 
	C1513.375122,2.000000 1530.750366,2.000000 1549.062744,1.999989 
z"/>


<path fill="#7360F8" opacity="1.000000" stroke="none" 
	d="
M1252.191162,222.514496 
	C1283.400757,236.326340 1314.410522,248.578552 1344.065063,263.520386 
	C1411.903809,297.701782 1473.832275,340.688873 1529.797119,392.236725 
	C1592.076172,449.600647 1644.078979,514.858093 1683.174927,590.113403 
	C1690.992188,605.161072 1697.857178,620.703247 1705.179321,636.008789 
	C1707.043579,639.905762 1708.976562,643.769836 1711.409668,648.897583 
	C1712.858887,653.325256 1713.545044,656.593262 1714.728271,659.670166 
	C1740.083618,725.604370 1753.307983,794.002991 1755.627441,864.483582 
	C1756.923462,903.858582 1753.876343,943.080261 1747.292114,981.898499 
	C1735.662964,1050.458130 1713.487549,1115.475098 1680.104370,1176.591187 
	C1678.429077,1179.658203 1677.870850,1183.335449 1676.792358,1186.728516 
	C1674.785034,1189.281982 1672.452148,1191.643799 1670.819092,1194.417480 
	C1642.551514,1242.426392 1609.352661,1286.651611 1571.043823,1327.174316 
	C1508.787964,1393.027954 1437.117065,1446.205200 1357.251831,1488.721313 
	C1293.100220,1522.872314 1225.661377,1548.276733 1155.102417,1565.349854 
	C1136.705933,1569.801270 1117.811768,1572.157715 1099.300781,1576.186523 
	C1084.212036,1579.470459 1069.062622,1581.489014 1053.657104,1582.095947 
	C1049.135742,1582.274292 1044.652832,1583.422974 1038.466187,1584.130127 
	C1033.083496,1584.650024 1029.386963,1585.166870 1025.690308,1585.683838 
	C1021.130188,1585.808838 1016.570129,1585.933960 1010.196655,1586.029541 
	C982.821167,1586.058838 957.258911,1586.117554 931.696716,1586.176270 
	C927.091125,1586.118896 922.485596,1586.061523 916.389282,1585.409668 
	C911.113953,1584.645630 907.329346,1584.475952 903.544800,1584.306396 
	C881.819580,1583.636841 860.418091,1580.467773 839.145874,1576.161499 
	C818.534485,1571.989014 797.615723,1569.035522 777.313293,1563.711060 
	C750.677917,1556.725830 724.286194,1548.610474 698.220032,1539.719604 
	C677.401123,1532.618530 656.651489,1524.816284 636.882019,1515.238647 
	C593.231750,1494.091797 550.081909,1471.931152 509.886688,1444.442261 
	C471.666687,1418.304199 435.402527,1389.872070 401.762360,1357.984375 
	C349.998322,1308.917114 306.208527,1253.683716 270.757172,1191.813843 
	C270.434082,1191.250000 269.882111,1190.817383 268.765320,1189.270752 
	C266.389160,1184.264038 264.801422,1180.254639 262.960022,1176.365479 
	C254.552246,1158.607666 245.351898,1141.187012 237.740997,1123.096436 
	C198.354263,1029.476562 183.323334,931.916138 192.434418,830.800903 
	C196.755280,782.847717 206.933685,736.013672 222.711609,690.464478 
	C226.959396,678.201538 231.364197,665.992920 236.041229,653.138184 
	C252.829163,614.171875 271.790527,577.163330 294.503479,542.106689 
	C335.937561,478.154480 386.052795,421.909485 444.053589,372.558899 
	C508.740997,317.518951 580.047302,273.150085 658.062622,239.655838 
	C678.840332,230.735382 700.097717,222.932434 721.134888,214.616394 
	C751.855530,205.849106 782.335144,196.064148 813.390259,188.709213 
	C831.057739,184.524948 849.080078,180.883804 867.477661,179.749268 
	C879.079895,179.033783 890.508850,175.819000 902.085266,174.234634 
	C907.309143,173.519684 912.702942,174.046204 919.787476,174.002350 
	C926.528564,173.432510 931.501770,172.869781 936.474976,172.307037 
	C961.560242,172.245117 986.645569,172.183197 1013.279297,172.763092 
	C1019.946106,173.542282 1025.064575,173.679672 1030.182983,173.817078 
	C1046.781616,175.844345 1063.400635,177.720642 1079.973145,179.942703 
	C1095.557739,182.032318 1111.236450,183.793976 1126.612549,186.965958 
	C1143.707397,190.492508 1160.375854,196.081039 1177.466064,199.637161 
	C1202.829224,204.914734 1226.948242,213.988312 1252.191162,222.514496 
M542.209473,587.741882 
	C529.325745,590.946716 516.023621,593.015137 503.638702,597.574829 
	C469.936371,609.982910 443.227997,632.324097 420.411469,659.559387 
	C396.644592,687.929199 379.015320,719.985168 365.064301,754.081360 
	C346.162292,800.277710 332.694946,847.847839 329.779449,898.018433 
	C325.548798,970.821228 340.846588,1039.753662 370.795898,1105.753540 
	C400.412140,1171.019287 441.016602,1228.894409 489.747223,1281.226685 
	C600.698792,1400.378540 739.755249,1460.404907 901.266052,1476.798828 
	C904.931580,1477.029663 908.597168,1477.260620 913.959778,1477.591309 
	C917.926636,1477.761841 921.893494,1477.932251 927.381409,1478.748779 
	C936.975891,1479.053223 946.570435,1479.357666 958.017212,1479.742188 
	C977.280640,1479.717163 996.544067,1479.692139 1017.639954,1479.958862 
	C1025.140381,1479.345093 1032.640747,1478.731323 1041.935059,1478.060181 
	C1049.518433,1477.399414 1057.111206,1476.829834 1064.683838,1476.063110 
	C1109.899170,1471.484619 1154.236572,1462.571655 1197.559814,1448.798096 
	C1299.561157,1416.369507 1386.693726,1360.927490 1458.480225,1281.255737 
	C1508.166260,1226.112183 1550.031616,1165.998047 1579.188721,1097.475098 
	C1599.573486,1049.567993 1612.376587,999.728943 1615.718384,947.699280 
	C1619.282593,892.205872 1611.611938,837.998718 1595.405273,784.938721 
	C1582.084839,741.327759 1564.159668,699.883423 1536.701416,663.078369 
	C1519.370972,639.848816 1498.982544,619.914124 1473.199707,606.144104 
	C1453.218262,595.472473 1432.151489,588.796570 1409.099609,589.893066 
	C1393.198853,590.649292 1378.318970,595.392334 1363.755127,601.223694 
	C1346.438721,608.157166 1329.334229,615.617249 1312.069824,622.682617 
	C1242.766846,651.044128 1170.606201,667.451538 1094.423950,673.896851 
	C1089.550293,674.503723 1084.676514,675.110596 1078.187988,675.812439 
	C1075.493286,675.889038 1072.798706,675.965637 1068.246216,675.812927 
	C1059.453003,676.401917 1050.659668,676.990967 1040.012939,677.709473 
	C1022.057434,677.672180 1004.101990,677.634888 984.660095,676.879272 
	C975.730103,676.609253 966.800049,676.339233 956.203979,676.070374 
	C952.874084,675.948425 949.544250,675.826416 944.773376,674.995789 
	C939.804077,674.710510 934.834778,674.425293 928.070190,674.045898 
	C914.268311,672.605286 900.346619,671.879456 886.687378,669.588562 
	C847.614929,663.035339 808.493652,656.610657 769.680725,648.714233 
	C721.251953,638.861389 674.742310,622.373169 628.541504,605.050110 
	C607.011108,596.977356 585.322388,589.287720 560.719421,586.797485 
	C555.110291,587.039246 549.501160,587.281067 542.209473,587.741882 
z"/>
<path fill="#7360F8" opacity="1.000000" stroke="none" 
	d="
M1048.320312,1673.685547 
	C1060.834106,1673.811157 1073.347900,1673.936646 1087.454346,1674.653198 
	C1098.139038,1675.394287 1107.231323,1675.544434 1116.323486,1675.694458 
	C1122.812134,1675.838379 1129.300659,1675.982300 1137.320190,1676.776367 
	C1144.674072,1677.512817 1150.497192,1677.599121 1156.320190,1677.685425 
	C1160.876587,1677.810791 1165.433105,1677.936157 1171.490845,1678.639648 
	C1178.054199,1679.420654 1183.116089,1679.623657 1188.178101,1679.826782 
	C1191.468750,1679.905762 1194.759277,1679.984741 1199.498047,1680.644653 
	C1204.739868,1681.385742 1208.533325,1681.545898 1212.326904,1681.706055 
	C1229.585938,1683.772217 1246.840576,1685.875854 1264.105469,1687.891846 
	C1276.476929,1689.336426 1288.973389,1690.029419 1301.218018,1692.175415 
	C1326.730835,1696.646851 1352.314819,1701.016846 1377.488647,1707.024536 
	C1398.954712,1712.147217 1420.035156,1719.058960 1441.011353,1726.008789 
	C1458.412231,1731.773926 1474.547852,1740.464478 1489.668579,1750.867432 
	C1510.151855,1764.959839 1524.408569,1784.387573 1536.347900,1805.794922 
	C1549.629028,1829.608154 1557.041016,1855.404053 1561.473877,1882.045654 
	C1566.318237,1911.161499 1569.340210,1940.517456 1570.493408,1971.435181 
	C1570.715942,1973.520996 1571.094604,1974.038818 1571.715820,1974.379272 
	C1571.921021,1982.823486 1572.126221,1991.267700 1572.329590,2001.102905 
	C1572.501343,2003.161255 1572.867065,2003.697510 1573.425049,2004.102539 
	C1573.479370,2040.752075 1573.533691,2077.401611 1573.025635,2115.271729 
	C1572.073975,2117.087646 1572.011230,2117.715820 1572.275146,2118.376465 
	C1572.074829,2125.537598 1571.874756,2132.698975 1571.341064,2141.083496 
	C1570.587280,2142.882080 1570.512573,2143.499023 1570.783569,2144.157715 
	C1566.491089,2196.470459 1557.987305,2248.175293 1547.558716,2299.550781 
	C1536.204956,2355.484131 1522.646851,2410.909424 1505.782227,2466.122803 
	C1499.507690,2461.653809 1493.959595,2457.284912 1489.496582,2451.999512 
	C1481.550049,2442.588623 1474.092041,2432.748535 1466.726807,2422.866699 
	C1443.998535,2392.372070 1420.623657,2362.350586 1392.881836,2336.235596 
	C1286.870483,2236.441650 1160.583740,2181.008545 1015.652344,2164.973389 
	C1011.934387,2164.474609 1008.883850,2164.347900 1004.919312,2164.187012 
	C996.076294,2163.802246 988.147400,2163.451660 979.459717,2162.761475 
	C967.725403,2162.685547 956.749878,2162.948730 944.856018,2163.288818 
	C918.489990,2165.721191 892.917725,2167.173340 867.626953,2170.665039 
	C837.278076,2174.854980 807.740356,2182.983643 778.771362,2193.078369 
	C703.870056,2219.178955 639.117737,2261.530762 582.697815,2316.724609 
	C557.959045,2340.926025 534.876953,2366.812744 510.731659,2391.631836 
	C497.509857,2405.222412 483.934601,2418.504150 469.953674,2431.308350 
	C461.365509,2439.173340 451.619385,2445.718506 440.106964,2448.947266 
	C436.023407,2436.054932 431.628876,2423.251465 427.910767,2410.254639 
	C412.866699,2357.665771 399.426758,2304.670654 389.002533,2250.956299 
	C382.129608,2215.541260 376.042847,2179.992676 373.476746,2142.565918 
	C373.230103,2140.521973 372.867615,2140.002197 372.277924,2139.640869 
	C372.059814,2130.406006 371.841705,2121.170898 371.661133,2110.498047 
	C371.240082,2108.545654 370.781555,2108.031250 370.323059,2107.517090 
	C370.341095,2095.655762 370.359100,2083.794434 370.821106,2070.660156 
	C371.667175,2068.822021 371.801331,2068.198975 371.667542,2067.518311 
	C371.916870,2058.994629 372.166199,2050.470703 372.990692,2040.742188 
	C373.957489,2038.933960 374.010284,2038.302124 373.724182,2037.641968 
	C375.804321,2021.546753 377.528381,2005.395630 380.038239,1989.367676 
	C385.380035,1955.255371 391.654053,1921.339478 401.854675,1888.243774 
	C415.154877,1845.091309 435.866486,1806.286621 466.266479,1772.562134 
	C487.402039,1749.115356 513.963135,1734.799194 542.697693,1723.648682 
	C567.456970,1714.040894 592.988831,1707.010986 619.029236,1701.833374 
	C638.911255,1697.880005 658.762146,1693.744385 678.716064,1690.190918 
	C686.763245,1688.757812 695.081726,1688.924438 703.217529,1687.895142 
	C715.839783,1686.298340 728.388245,1684.113770 741.015015,1682.559570 
	C746.583618,1681.874023 752.267517,1682.124146 759.611694,1681.938477 
	C764.989868,1681.346802 768.655518,1680.766113 772.321106,1680.185303 
	C775.609192,1680.126465 778.897278,1680.067627 783.849365,1680.002686 
	C789.833313,1679.433594 794.153198,1678.870483 798.473083,1678.307373 
	C803.021545,1678.207886 807.570007,1678.108276 813.856079,1678.000977 
	C821.220154,1677.431274 826.846619,1676.869385 832.473083,1676.307495 
	C838.956116,1676.186768 845.439148,1676.066040 853.742065,1675.922607 
	C863.865601,1675.373413 872.169373,1674.846802 880.473083,1674.320190 
	C892.935974,1674.196167 905.398865,1674.072266 919.728394,1673.924438 
	C963.836792,1673.828857 1006.078552,1673.757202 1048.320312,1673.685547 
z"/>
<path fill="#7360F7" opacity="1.000000" stroke="none" 
	d="
M1481.915527,2551.103271 
	C1469.667603,2589.293457 1458.248413,2627.774658 1444.964233,2665.601074 
	C1428.035156,2713.807373 1410.308594,2761.764648 1391.555908,2809.288818 
	C1379.389404,2840.122070 1364.776978,2869.989990 1350.753662,2900.029297 
	C1346.529297,2895.168213 1341.829956,2891.043213 1339.321167,2885.858154 
	C1335.438110,2877.832520 1332.087402,2869.291016 1330.213501,2860.600830 
	C1325.023804,2836.534180 1320.483887,2812.319336 1316.106201,2788.087402 
	C1307.802979,2742.125732 1296.900146,2696.873535 1279.920166,2653.265625 
	C1264.290894,2613.126953 1243.213745,2576.200439 1212.408325,2545.717773 
	C1157.286987,2491.174072 1090.534302,2459.997314 1013.964050,2449.692871 
	C979.088257,2444.999512 944.283142,2447.445557 909.887878,2454.200684 
	C862.006714,2463.604004 817.260071,2480.949219 777.003845,2509.024170 
	C712.401062,2554.078369 670.595154,2616.400879 642.272583,2688.520996 
	C624.485229,2733.814697 620.817139,2782.363281 611.959778,2829.707275 
	C609.216431,2844.370850 605.248535,2858.841064 601.089905,2873.181885 
	C599.896790,2877.296631 596.075684,2880.649170 593.459473,2884.351318 
	C582.217102,2857.766357 570.154663,2831.492676 559.920105,2804.525146 
	C543.667664,2761.700684 528.226074,2718.555420 513.198547,2675.282715 
	C496.987885,2628.603027 481.647705,2581.620850 466.418060,2533.655518 
	C489.532379,2525.476318 509.494446,2513.458984 526.941956,2497.798340 
	C544.250732,2482.261963 560.888916,2465.895264 576.916809,2449.033203 
	C605.573242,2418.885254 633.208374,2387.770996 664.568970,2360.281738 
	C742.170715,2292.259277 832.640015,2256.423096 936.496216,2251.674316 
	C955.132507,2251.709229 972.814209,2251.550781 991.388306,2251.410645 
	C1005.215393,2252.578369 1018.201111,2253.323730 1031.075806,2254.948975 
	C1079.333618,2261.041260 1125.282837,2275.403076 1169.987671,2294.192383 
	C1242.604858,2324.712402 1306.983276,2366.960938 1358.306885,2427.416016 
	C1374.895752,2446.956055 1389.848999,2467.875732 1406.033325,2487.771484 
	C1417.155151,2501.443604 1428.498657,2515.042236 1440.872070,2527.557861 
	C1452.174805,2538.990723 1465.790527,2547.519531 1481.915527,2551.103271 
z"/>
<path fill="#7360F7" opacity="1.000000" stroke="none" 
	d="
M1311.658813,2976.332520 
	C1308.983765,2979.540771 1305.956909,2982.519287 1303.689331,2985.993408 
	C1285.328003,3014.124268 1264.530273,3040.123779 1237.955566,3061.006836 
	C1230.165283,3067.128906 1221.819580,3072.544189 1212.563110,3078.064453 
	C1200.954468,3060.278076 1193.013062,3041.659180 1188.135010,3021.795410 
	C1184.574219,3007.295898 1181.596924,2992.644531 1177.713623,2978.234619 
	C1169.289551,2946.974121 1159.070923,2916.354492 1141.947754,2888.564453 
	C1121.609863,2855.556396 1093.289917,2832.154053 1056.211548,2820.516113 
	C1042.029663,2816.064697 1026.998657,2814.318359 1011.686646,2810.964844 
	C1007.965210,2810.458984 1004.911682,2810.327881 1000.930298,2810.161133 
	C981.371277,2809.627686 962.786804,2809.434570 944.335083,2813.024902 
	C890.782104,2823.444824 851.040649,2853.448242 822.890320,2899.301025 
	C814.221436,2913.421387 806.470459,2928.312012 800.133240,2943.609863 
	C790.096375,2967.838623 781.453003,2992.652344 772.504028,3017.321777 
	C764.681702,3038.885254 756.374084,3060.199463 744.503113,3079.937500 
	C721.904297,3064.727295 700.937561,3047.541504 682.542114,3027.423584 
	C664.653564,3007.860107 649.159790,2986.438965 635.363220,2963.201660 
	C650.307922,2954.347900 662.367920,2943.249756 670.477844,2928.789551 
	C677.276001,2916.668945 683.321411,2903.877930 687.729736,2890.723389 
	C694.390747,2870.846924 698.328186,2850.270996 700.318176,2829.243652 
	C701.720459,2814.426025 705.751282,2799.877441 707.993225,2785.114990 
	C714.419250,2742.803467 727.751160,2703.122803 749.915283,2666.252441 
	C774.810730,2624.838867 806.248291,2590.217285 849.222900,2567.338135 
	C885.568665,2547.988037 924.565613,2537.400879 966.681213,2535.436279 
	C974.470093,2535.503906 981.341064,2535.365234 989.105896,2535.308105 
	C996.291992,2535.957031 1002.621765,2536.257812 1008.870422,2537.135498 
	C1045.387573,2542.267090 1078.667725,2556.216064 1109.946167,2575.172363 
	C1143.222900,2595.339355 1168.360840,2623.158936 1186.026733,2657.818604 
	C1201.853271,2688.869141 1212.346558,2721.843018 1219.811157,2755.667969 
	C1227.404907,2790.077637 1233.261108,2824.868896 1240.041016,2859.461182 
	C1244.788086,2883.682373 1250.786987,2907.551270 1262.981567,2929.318359 
	C1274.476074,2949.835205 1289.976440,2966.311523 1311.658813,2976.332520 
z"/>
<path fill="#675C90" opacity="1.000000" stroke="none" 
	d="
M720.724487,214.080704 
	C700.097717,222.932434 678.840332,230.735382 658.062622,239.655838 
	C580.047302,273.150085 508.740997,317.518951 444.053589,372.558899 
	C386.052795,421.909485 335.937561,478.154480 294.503479,542.106689 
	C271.790527,577.163330 252.829163,614.171875 235.365509,652.865540 
	C221.206802,647.831787 207.502884,649.433044 193.887558,649.939697 
	C194.464844,646.843811 196.021103,643.560974 195.471069,640.680359 
	C188.358582,603.431152 188.070343,565.768433 190.607376,528.266357 
	C197.651566,424.140503 222.468399,324.136353 263.365662,228.133331 
	C284.438934,178.665451 309.815552,131.539749 341.171906,87.791321 
	C356.574005,66.302307 373.862976,46.479877 397.012909,32.837723 
	C418.078308,20.423939 440.842651,16.272196 465.177673,18.861422 
	C505.206726,23.120485 540.645996,39.466488 574.803894,59.386299 
	C605.751831,77.434204 633.698547,99.520798 659.168152,124.553696 
	C679.636108,144.670700 697.729248,166.906631 711.108337,192.540497 
	C714.637268,199.301758 717.269958,206.530777 720.724487,214.080704 
z"/>
<path fill="#ABF168" opacity="1.000000" stroke="none" 
	d="
M1312.327881,2976.057129 
	C1289.976440,2966.311523 1274.476074,2949.835205 1262.981567,2929.318359 
	C1250.786987,2907.551270 1244.788086,2883.682373 1240.041016,2859.461182 
	C1233.261108,2824.868896 1227.404907,2790.077637 1219.811157,2755.667969 
	C1212.346558,2721.843018 1201.853271,2688.869141 1186.026733,2657.818604 
	C1168.360840,2623.158936 1143.222900,2595.339355 1109.946167,2575.172363 
	C1078.667725,2556.216064 1045.387573,2542.267090 1008.870422,2537.135498 
	C1002.621765,2536.257812 996.291992,2535.957031 988.382568,2534.947266 
	C979.764709,2534.747070 972.763977,2534.988525 965.763306,2535.229980 
	C924.565613,2537.400879 885.568665,2547.988037 849.222900,2567.338135 
	C806.248291,2590.217285 774.810730,2624.838867 749.915283,2666.252441 
	C727.751160,2703.122803 714.419250,2742.803467 707.993225,2785.114990 
	C705.751282,2799.877441 701.720459,2814.426025 700.318176,2829.243652 
	C698.328186,2850.270996 694.390747,2870.846924 687.729736,2890.723389 
	C683.321411,2903.877930 677.276001,2916.668945 670.477844,2928.789551 
	C662.367920,2943.249756 650.307922,2954.347900 635.006958,2962.693359 
	C625.034546,2946.330322 615.569275,2929.755371 606.449951,2912.992676 
	C601.616516,2904.107666 597.383789,2894.895752 593.169678,2885.091309 
	C596.075684,2880.649170 599.896790,2877.296631 601.089905,2873.181885 
	C605.248535,2858.841064 609.216431,2844.370850 611.959778,2829.707275 
	C620.817139,2782.363281 624.485229,2733.814697 642.272583,2688.520996 
	C670.595154,2616.400879 712.401062,2554.078369 777.003845,2509.024170 
	C817.260071,2480.949219 862.006714,2463.604004 909.887878,2454.200684 
	C944.283142,2447.445557 979.088257,2444.999512 1013.964050,2449.692871 
	C1090.534302,2459.997314 1157.286987,2491.174072 1212.408325,2545.717773 
	C1243.213745,2576.200439 1264.290894,2613.126953 1279.920166,2653.265625 
	C1296.900146,2696.873535 1307.802979,2742.125732 1316.106201,2788.087402 
	C1320.483887,2812.319336 1325.023804,2836.534180 1330.213501,2860.600830 
	C1332.087402,2869.291016 1335.438110,2877.832520 1339.321167,2885.858154 
	C1341.829956,2891.043213 1346.529297,2895.168213 1350.275391,2900.434082 
	C1345.601685,2909.978271 1340.698242,2918.757080 1336.241821,2927.757080 
	C1328.350342,2943.694336 1320.730347,2959.766357 1312.327881,2976.057129 
z"/>
<path fill="#ABF168" opacity="1.000000" stroke="none" 
	d="
M1482.458008,2550.509521 
	C1465.790527,2547.519531 1452.174805,2538.990723 1440.872070,2527.557861 
	C1428.498657,2515.042236 1417.155151,2501.443604 1406.033325,2487.771484 
	C1389.848999,2467.875732 1374.895752,2446.956055 1358.306885,2427.416016 
	C1306.983276,2366.960938 1242.604858,2324.712402 1169.987671,2294.192383 
	C1125.282837,2275.403076 1079.333618,2261.041260 1031.075806,2254.948975 
	C1018.201111,2253.323730 1005.215393,2252.578369 990.608521,2251.056641 
	C976.695557,2250.411377 964.454468,2249.938477 952.214111,2249.955566 
	C946.656006,2249.963379 941.099182,2250.942383 935.541748,2251.480957 
	C832.640015,2256.423096 742.170715,2292.259277 664.568970,2360.281738 
	C633.208374,2387.770996 605.573242,2418.885254 576.916809,2449.033203 
	C560.888916,2465.895264 544.250732,2482.261963 526.941956,2497.798340 
	C509.494446,2513.458984 489.532379,2525.476318 466.273682,2532.856689 
	C460.544556,2517.578857 455.305084,2502.029785 450.402802,2486.375244 
	C446.669678,2474.454346 443.364319,2462.399658 439.987823,2449.675781 
	C451.619385,2445.718506 461.365509,2439.173340 469.953674,2431.308350 
	C483.934601,2418.504150 497.509857,2405.222412 510.731659,2391.631836 
	C534.876953,2366.812744 557.959045,2340.926025 582.697815,2316.724609 
	C639.117737,2261.530762 703.870056,2219.178955 778.771362,2193.078369 
	C807.740356,2182.983643 837.278076,2174.854980 867.626953,2170.665039 
	C892.917725,2167.173340 918.489990,2165.721191 945.788574,2163.494141 
	C958.499207,2163.448730 969.358887,2163.274902 980.218506,2163.100830 
	C988.147400,2163.451660 996.076294,2163.802246 1005.606567,2164.516357 
	C1010.245239,2165.035156 1013.282471,2165.190430 1016.319763,2165.345703 
	C1160.583740,2181.008545 1286.870483,2236.441650 1392.881836,2336.235596 
	C1420.623657,2362.350586 1443.998535,2392.372070 1466.726807,2422.866699 
	C1474.092041,2432.748535 1481.550049,2442.588623 1489.496582,2451.999512 
	C1493.959595,2457.284912 1499.507690,2461.653809 1505.231323,2466.698242 
	C1503.381836,2476.849854 1501.057007,2486.791504 1498.312866,2496.616211 
	C1493.340454,2514.419434 1488.118286,2532.153076 1482.458008,2550.509521 
z"/>
<path fill="#C1A2F3" opacity="1.000000" stroke="none" 
	d="
M193.069824,650.005371 
	C207.502884,649.433044 221.206802,647.831787 235.021210,653.486755 
	C231.364197,665.992920 226.959396,678.201538 222.711609,690.464478 
	C206.933685,736.013672 196.755280,782.847717 192.434418,830.800903 
	C183.323334,931.916138 198.354263,1029.476562 237.740997,1123.096436 
	C245.351898,1141.187012 254.552246,1158.607666 262.960022,1176.365479 
	C264.801422,1180.254639 266.389160,1184.264038 268.152588,1188.948730 
	C260.916931,1191.166870 253.622360,1192.654297 244.637817,1194.118286 
	C238.492981,1194.638916 234.038147,1195.182861 229.583313,1195.726929 
	C228.873627,1195.788208 228.163956,1195.849487 226.279053,1195.254639 
	C219.821167,1194.483643 214.538483,1194.368652 209.255814,1194.253784 
	C193.920578,1194.242188 179.568344,1189.433472 165.150040,1185.073730 
	C138.600464,1177.046143 114.739571,1163.776001 92.878174,1146.915527 
	C67.558174,1127.387451 49.017174,1102.843628 38.023144,1072.559326 
	C31.319880,1054.094482 28.762711,1034.927246 26.179462,1014.291138 
	C25.908112,1012.575256 25.732807,1012.240906 25.557503,1011.906555 
	C25.595776,1009.266113 25.634048,1006.625732 25.806961,1002.689697 
	C25.542057,1000.875000 25.142515,1000.355896 24.742989,999.836792 
	C24.613873,995.833618 24.484741,991.830383 24.680441,986.720337 
	C24.723343,985.054260 24.441412,984.495178 24.159485,983.936035 
	C23.997561,976.687073 23.835632,969.438049 23.810154,960.793213 
	C23.550594,958.881775 23.154581,958.366211 22.758583,957.850647 
	C22.624659,947.217896 22.490721,936.585205 22.686283,924.780151 
	C22.734261,923.052185 22.452734,922.496521 22.171209,921.940918 
	C22.002308,900.237671 21.830753,878.534424 21.667109,856.831177 
	C21.639814,853.211182 21.646910,849.590942 21.774380,844.522827 
	C21.879349,842.697693 21.848057,842.320496 21.816765,841.943359 
	C21.999815,838.558472 22.182861,835.173584 22.864246,830.621704 
	C23.465330,828.811340 23.568073,828.167969 23.670815,827.524536 
	C25.473099,788.970032 38.174679,754.551086 63.231953,725.046997 
	C92.439468,690.656128 129.471802,668.027161 172.077606,654.190552 
	C178.564224,652.083923 185.515640,651.408447 193.069824,650.005371 
z"/>
<path fill="#C0A2F3" opacity="1.000000" stroke="none" 
	d="
M1677.463501,1187.273560 
	C1677.870850,1183.335449 1678.429077,1179.658203 1680.104370,1176.591187 
	C1713.487549,1115.475098 1735.662964,1050.458130 1747.292114,981.898499 
	C1753.876343,943.080261 1756.923462,903.858582 1755.627441,864.483582 
	C1753.307983,794.002991 1740.083618,725.604370 1714.728271,659.670166 
	C1713.545044,656.593262 1712.858887,653.325256 1711.926758,649.406372 
	C1722.397095,649.738342 1733.051758,649.985046 1743.322510,652.097656 
	C1755.256714,654.552490 1766.854492,658.643188 1779.357910,661.983032 
	C1816.545410,675.617737 1848.123169,696.347412 1873.205078,726.368591 
	C1893.071777,750.147827 1904.998169,777.374817 1908.011597,808.351135 
	C1908.648315,814.897339 1909.346069,821.437500 1910.094238,829.350342 
	C1910.361572,831.387573 1910.774780,831.857666 1911.412476,832.130493 
	C1911.521484,839.474731 1911.630493,846.818909 1911.921143,855.617188 
	C1912.250854,857.417358 1912.399048,857.763489 1912.547363,858.109680 
	C1912.481323,862.792175 1912.415405,867.474609 1912.130615,873.532654 
	C1911.970337,875.279358 1912.028687,875.650574 1912.087158,876.021729 
	C1911.947998,888.587891 1911.808838,901.154053 1911.200439,914.906433 
	C1910.686279,916.770325 1910.641235,917.448059 1910.596191,918.125732 
	C1910.513672,926.105530 1910.431030,934.085327 1910.125977,943.485718 
	C1909.961792,945.280029 1910.020264,945.653809 1910.078857,946.027588 
	C1909.942017,953.268494 1909.805298,960.509338 1909.193726,968.921143 
	C1908.675293,970.772156 1908.631592,971.452148 1908.587891,972.132202 
	C1908.481689,976.831726 1908.375488,981.531250 1907.748657,987.264404 
	C1907.125610,988.510132 1906.898926,988.756165 1906.945679,988.927856 
	C1907.060669,989.350830 1907.301147,989.739624 1907.491211,990.142212 
	C1907.532104,992.849060 1907.572998,995.555969 1907.013916,999.345703 
	C1906.370972,1001.083618 1906.328247,1001.738647 1906.285522,1002.393738 
	C1905.976440,1016.019531 1903.672852,1029.289429 1900.715698,1042.618042 
	C1897.696411,1056.226807 1893.871948,1069.273071 1888.358887,1082.158081 
	C1882.247437,1096.442139 1874.156494,1109.189819 1864.214355,1120.754517 
	C1836.677734,1152.785278 1801.958374,1174.338501 1762.100098,1187.302368 
	C1745.677979,1192.643677 1728.738159,1196.692871 1710.973877,1196.298706 
	C1699.137451,1196.036011 1688.225342,1193.980591 1677.463501,1187.273560 
z"/>
<path fill="#ABF168" opacity="1.000000" stroke="none" 
	d="
M1012.354614,2811.339355 
	C1026.998657,2814.318359 1042.029663,2816.064697 1056.211548,2820.516113 
	C1093.289917,2832.154053 1121.609863,2855.556396 1141.947754,2888.564453 
	C1159.070923,2916.354492 1169.289551,2946.974121 1177.713623,2978.234619 
	C1181.596924,2992.644531 1184.574219,3007.295898 1188.135010,3021.795410 
	C1193.013062,3041.659180 1200.954468,3060.278076 1211.936523,3078.371582 
	C1204.327271,3083.845459 1196.287231,3088.983398 1188.007568,3093.700195 
	C1172.503662,3102.532959 1156.900146,3111.194336 1141.227417,3119.723877 
	C1139.204590,3120.824951 1136.524170,3120.717529 1133.670532,3119.876465 
	C1125.201904,3100.299072 1116.000732,3082.429443 1109.557251,3063.615234 
	C1103.001221,3044.472900 1099.118774,3024.410889 1094.144043,3004.731934 
	C1088.743530,2983.369385 1081.802124,2962.556396 1072.070923,2942.748291 
	C1060.025757,2918.230713 1040.640869,2903.282227 1013.412781,2899.940918 
	C999.598633,2898.245605 985.527588,2897.546387 971.619751,2897.964600 
	C949.800842,2898.620361 930.996826,2907.332031 915.279846,2922.577881 
	C905.362915,2932.197998 897.704895,2943.441895 891.396667,2955.646973 
	C879.758484,2978.164551 869.426147,3001.240723 861.968140,3025.519531 
	C852.953064,3054.867432 841.701233,3083.316162 827.946167,3110.774902 
	C826.626526,3113.408936 825.842896,3116.311768 824.810425,3119.089844 
	C822.676819,3119.097168 820.163025,3119.856445 818.466675,3118.998779 
	C793.846008,3106.552734 769.335144,3093.889404 744.650574,3080.607910 
	C756.374084,3060.199463 764.681702,3038.885254 772.504028,3017.321777 
	C781.453003,2992.652344 790.096375,2967.838623 800.133240,2943.609863 
	C806.470459,2928.312012 814.221436,2913.421387 822.890320,2899.301025 
	C851.040649,2853.448242 890.782104,2823.444824 944.335083,2813.024902 
	C962.786804,2809.434570 981.371277,2809.627686 1001.627441,2810.468262 
	C1006.286499,2810.987061 1009.320557,2811.163086 1012.354614,2811.339355 
z"/>
<path fill="#7360F7" opacity="1.000000" stroke="none" 
	d="
M825.480713,3119.409424 
	C825.842896,3116.311768 826.626526,3113.408936 827.946167,3110.774902 
	C841.701233,3083.316162 852.953064,3054.867432 861.968140,3025.519531 
	C869.426147,3001.240723 879.758484,2978.164551 891.396667,2955.646973 
	C897.704895,2943.441895 905.362915,2932.197998 915.279846,2922.577881 
	C930.996826,2907.332031 949.800842,2898.620361 971.619751,2897.964600 
	C985.527588,2897.546387 999.598633,2898.245605 1013.412781,2899.940918 
	C1040.640869,2903.282227 1060.025757,2918.230713 1072.070923,2942.748291 
	C1081.802124,2962.556396 1088.743530,2983.369385 1094.144043,3004.731934 
	C1099.118774,3024.410889 1103.001221,3044.472900 1109.557251,3063.615234 
	C1116.000732,3082.429443 1125.201904,3100.299072 1133.239746,3119.260010 
	C1106.389160,3130.699219 1078.608154,3138.402100 1050.112427,3143.443359 
	C1042.065063,3144.866943 1033.817993,3145.143311 1025.670898,3146.025146 
	C1019.829834,3146.657227 1014.003113,3147.421631 1006.342957,3148.129150 
	C993.576660,3148.146729 982.637329,3148.161865 971.697998,3148.177002 
	C967.090881,3148.120605 962.483826,3148.064209 956.390076,3147.429688 
	C951.168396,3146.626953 947.433411,3146.402100 943.698364,3146.177246 
	C932.324646,3144.750977 920.860962,3143.820801 909.598938,3141.778564 
	C894.014893,3138.952393 878.444336,3135.819092 863.128784,3131.819092 
	C850.604675,3128.547852 838.462585,3123.814209 825.480713,3119.409424 
z"/>

<path fill="#D3E8E8" opacity="1.000000" stroke="none" 
	d="
M899.864990,1476.121094 
	C739.755249,1460.404907 600.698792,1400.378540 489.747223,1281.226685 
	C441.016602,1228.894409 400.412140,1171.019287 370.795898,1105.753540 
	C340.846588,1039.753662 325.548798,970.821228 329.779449,898.018433 
	C332.694946,847.847839 346.162292,800.277710 365.064301,754.081360 
	C379.015320,719.985168 396.644592,687.929199 420.411469,659.559387 
	C443.227997,632.324097 469.936371,609.982910 503.638702,597.574829 
	C516.023621,593.015137 529.325745,590.946716 543.953613,587.778809 
	C551.166992,587.710144 556.636292,587.604553 562.105530,587.498962 
	C585.322388,589.287720 607.011108,596.977356 628.541504,605.050110 
	C674.742310,622.373169 721.251953,638.861389 769.680725,648.714233 
	C808.493652,656.610657 847.614929,663.035339 886.687378,669.588562 
	C900.346619,671.879456 914.268311,672.605286 929.692261,674.436584 
	C936.281067,675.119690 941.247681,675.412048 946.214355,675.704468 
	C949.544250,675.826416 952.874084,675.948425 957.801270,676.379761 
	C968.314514,676.992004 977.230530,677.294800 986.146484,677.597656 
	C1004.101990,677.634888 1022.057434,677.672180 1041.864990,677.795593 
	C1052.512695,677.268555 1061.308350,676.655396 1070.104004,676.042236 
	C1072.798706,675.965637 1075.493286,675.889038 1079.850098,675.897705 
	C1086.385132,675.362183 1091.257935,674.741455 1096.130859,674.120728 
	C1170.606201,667.451538 1242.766846,651.044128 1312.069824,622.682617 
	C1329.334229,615.617249 1346.438721,608.157166 1363.755127,601.223694 
	C1378.318970,595.392334 1393.198853,590.649292 1409.099609,589.893066 
	C1432.151489,588.796570 1453.218262,595.472473 1473.199707,606.144104 
	C1498.982544,619.914124 1519.370972,639.848816 1536.701416,663.078369 
	C1564.159668,699.883423 1582.084839,741.327759 1595.405273,784.938721 
	C1611.611938,837.998718 1619.282593,892.205872 1615.718384,947.699280 
	C1612.376587,999.728943 1599.573486,1049.567993 1579.188721,1097.475098 
	C1550.031616,1165.998047 1508.166260,1226.112183 1458.480225,1281.255737 
	C1386.693726,1360.927490 1299.561157,1416.369507 1197.559814,1448.798096 
	C1154.236572,1462.571655 1109.899170,1471.484619 1064.683838,1476.063110 
	C1057.111206,1476.829834 1049.518433,1477.399414 1040.120361,1477.968506 
	C1030.806396,1478.473511 1023.306946,1479.070312 1015.807495,1479.667236 
	C996.544067,1479.692139 977.280640,1479.717163 956.342285,1479.349365 
	C945.065002,1478.671875 935.462646,1478.387329 925.860352,1478.102783 
	C921.893494,1477.932251 917.926636,1477.761841 912.418457,1477.183594 
	C907.206482,1476.557495 903.535706,1476.339233 899.864990,1476.121094 
M832.407532,1220.107178 
	C830.013977,1221.254517 827.467896,1222.164551 825.251770,1223.588013 
	C811.925964,1232.148315 805.001709,1251.380127 809.923218,1265.696045 
	C813.169617,1275.139038 819.941528,1281.004395 828.689453,1285.334595 
	C868.394531,1304.987793 908.002991,1324.835815 947.668030,1344.569946 
	C950.330566,1345.894531 953.172852,1346.857544 957.041992,1348.687378 
	C958.731873,1348.947388 960.421692,1349.207397 963.539795,1349.670044 
	C964.979065,1349.621582 966.418335,1349.572998 969.269714,1349.812622 
	C970.221436,1349.719604 971.173096,1349.626465 973.555420,1349.696289 
	C974.988281,1349.598389 976.421082,1349.500610 979.065002,1349.591919 
	C980.179626,1349.139771 981.294250,1348.687622 983.845520,1348.037598 
	C1027.907349,1326.196045 1072.019287,1304.454102 1115.984619,1282.420044 
	C1123.774170,1278.516479 1127.762695,1271.261108 1130.491211,1262.982666 
	C1135.024780,1249.227539 1122.988281,1222.086426 1103.103760,1218.721802 
	C1098.595581,1219.002563 1094.087402,1219.283325 1088.143066,1219.829346 
	C1084.185791,1221.549683 1080.143921,1223.099609 1076.284668,1225.017212 
	C1043.495361,1241.309937 1010.664673,1257.522949 978.041565,1274.142944 
	C972.079285,1277.180420 967.394775,1277.162354 961.453430,1274.136841 
	C928.829102,1257.523682 896.013123,1241.286133 863.216797,1225.012695 
	C859.072815,1222.956421 854.657837,1221.446411 849.021484,1218.848022 
	C843.828796,1217.419312 838.705811,1217.039185 832.407532,1220.107178 
M705.759827,1096.079712 
	C737.870667,1089.418213 756.539185,1067.043213 756.853638,1034.251099 
	C757.140564,1004.330566 757.083862,974.406067 757.066345,944.483398 
	C757.059875,933.516296 757.273560,922.508057 756.443054,911.590393 
	C754.373169,884.378235 735.201904,863.309692 706.753479,857.067200 
	C697.007874,855.492554 687.276917,854.525757 676.150024,857.879822 
	C646.510681,865.356750 628.428467,888.187073 628.348267,918.589050 
	C628.247192,956.873108 628.283081,995.157654 628.335999,1033.441895 
	C628.381592,1066.441040 647.134644,1089.219849 681.311218,1096.911377 
	C688.992737,1098.459351 696.651733,1099.180786 705.759827,1096.079712 
M1269.623901,1095.884888 
	C1297.992920,1090.434204 1318.420410,1066.401611 1318.732056,1039.388794 
	C1319.215942,997.451660 1319.423218,955.494019 1318.642578,913.565674 
	C1318.119873,885.495544 1298.032471,863.446472 1268.780396,857.051270 
	C1259.031006,855.477722 1249.297852,854.553589 1238.169556,857.891785 
	C1208.585205,865.480652 1190.555054,888.105591 1190.380005,918.630066 
	C1190.160767,956.880066 1190.446655,995.132874 1190.290771,1033.383545 
	C1190.141113,1070.128906 1215.948486,1092.460571 1243.328857,1096.898560 
	C1251.652588,1098.500244 1259.949951,1099.252075 1269.623901,1095.884888 
z"/>
<path fill="#675C90" opacity="1.000000" stroke="none" 
	d="
M1270.274536,857.834106 
	C1298.032471,863.446472 1318.119873,885.495544 1318.642578,913.565674 
	C1319.423218,955.494019 1319.215942,997.451660 1318.732056,1039.388794 
	C1318.420410,1066.401611 1297.992920,1090.434204 1267.941040,1095.901855 
	C1258.122803,1095.999878 1249.987549,1096.081177 1241.852173,1096.162354 
	C1215.948486,1092.460571 1190.141113,1070.128906 1190.290771,1033.383545 
	C1190.446655,995.132874 1190.160767,956.880066 1190.380005,918.630066 
	C1190.555054,888.105591 1208.585205,865.480652 1239.873047,857.945312 
	C1251.142578,857.943909 1260.708496,857.888977 1270.274536,857.834106 
z"/>
<path fill="#675C90" opacity="1.000000" stroke="none" 
	d="
M708.244385,857.845032 
	C735.201904,863.309692 754.373169,884.378235 756.443054,911.590393 
	C757.273560,922.508057 757.059875,933.516296 757.066345,944.483398 
	C757.083862,974.406067 757.140564,1004.330566 756.853638,1034.251099 
	C756.539185,1067.043213 737.870667,1089.418213 704.050720,1096.059814 
	C694.842163,1096.086548 687.342712,1096.133057 679.843262,1096.179688 
	C647.134644,1089.219849 628.381592,1066.441040 628.335999,1033.441895 
	C628.283081,995.157654 628.247192,956.873108 628.348267,918.589050 
	C628.428467,888.187073 646.510681,865.356750 677.855286,857.933044 
	C689.121826,857.939148 698.683105,857.892090 708.244385,857.845032 
z"/>
<path fill="#685D91" opacity="1.000000" stroke="none" 
	d="
M955.931519,1347.988892 
	C953.172852,1346.857544 950.330566,1345.894531 947.668030,1344.569946 
	C908.002991,1324.835815 868.394531,1304.987793 828.689453,1285.334595 
	C819.941528,1281.004395 813.169617,1275.139038 809.923218,1265.696045 
	C805.001709,1251.380127 811.925964,1232.148315 825.251770,1223.588013 
	C827.467896,1222.164551 830.013977,1221.254517 834.019043,1220.059814 
	C840.543152,1219.902710 845.455811,1219.792847 850.368469,1219.683105 
	C854.657837,1221.446411 859.072815,1222.956421 863.216797,1225.012695 
	C896.013123,1241.286133 928.829102,1257.523682 961.453430,1274.136841 
	C967.394775,1277.162354 972.079285,1277.180420 978.041565,1274.142944 
	C1010.664673,1257.522949 1043.495361,1241.309937 1076.284668,1225.017212 
	C1080.143921,1223.099609 1084.185791,1221.549683 1089.787354,1219.802246 
	C1095.761230,1219.701172 1100.090942,1219.627319 1104.420654,1219.553345 
	C1122.988281,1222.086426 1135.024780,1249.227539 1130.491211,1262.982666 
	C1127.762695,1271.261108 1123.774170,1278.516479 1115.984619,1282.420044 
	C1072.019287,1304.454102 1027.907349,1326.196045 982.519653,1348.081421 
	C980.080444,1348.551025 978.967224,1348.976929 977.853943,1349.402710 
	C976.421082,1349.500610 974.988281,1349.598389 972.456177,1349.336182 
	C970.190491,1349.158936 969.024048,1349.341675 967.857605,1349.524414 
	C966.418335,1349.572998 964.979065,1349.621582 962.285278,1349.200195 
	C959.330994,1348.483276 957.631226,1348.236084 955.931519,1347.988892 
z"/>
</svg>